<?xml version="1.0" encoding="UTF-8"?>
<!DOCTYPE svg PUBLIC "-//W3C//DTD SVG 1.1//EN" "http://www.w3.org/Graphics/SVG/1.1/DTD/svg11.dtd">
<svg version="1.1" xmlns="http://www.w3.org/2000/svg" xmlns:xlink="http://www.w3.org/1999/xlink" x="0" y="0" width="1880" height="304" viewBox="0, 0, 470, 76">
  <g id="Layer_1">
    <g>
      <path d="M343.92,32.02 C343.92,32.02 340.16,30.48 339.5,28.48 C339.5,28.48 339.7,27.24 339.32,27.08 C338.94,26.92 338.12,27.12 338.12,26.38 C338.12,25.66 338.3,25.02 338.12,24.68 C338.12,24.68 336.84,23.26 337.14,22.94 C337.44,22.62 338.24,21.2 338.24,20.78 C338.24,20.36 337.36,19.2 337.3,18.78 C337.24,18.36 337.86,16.78 338.24,16.72 C338.62,16.66 340,16.76 340.32,16.28 C340.64,15.8 340.32,14.16 340.32,14.04 C340.32,13.92 340.32,13.92 340.32,13.92 C340.32,13.92 340.5,13.04 341.52,13.04 C341.52,13.04 342.22,13.38 342.36,12.78 C342.52,12.18 342.48,11.2 342.48,11.2 C342.48,11.2 344.14,11.48 344.28,10.98 C344.4,10.48 343.62,8.74 344.28,8.44 C344.94,8.14 345.54,7.96 345.88,8.12 C346.22,8.28 346.14,8.72 346.94,8.62 C347.76,8.52 348.1,7.92 348.52,7.52 C348.92,7.1 349.44,6.98 349.56,7.26 C349.68,7.54 350.06,7.98 350.44,7.86 C350.44,7.86 350.7,7.52 350.72,6.76 C350.76,6 350.72,5.66 350.72,5.66 L352.54,5.66 C352.54,5.66 352.16,4.68 352.88,4.48 C353.6,4.3 354.54,4.86 354.54,4.86 C354.54,4.86 355.86,4.74 356.26,4.2 C356.66,3.66 357.32,2.8 358.58,3.98 C358.58,3.98 359.58,4.58 360.4,4.08 C361.22,3.58 361.54,2.66 362.26,2.82 C362.26,2.82 362.04,3.36 362.76,3 C363.48,2.66 363.76,1.8 364.4,1.74 C365.02,1.68 366.32,1.62 366.6,2.72 C366.6,2.72 367.52,3.42 367.82,3.22 C368.14,3.04 368.58,2.62 369.02,2.66 C369.46,2.7 370.82,2.38 371.06,2.5 C371.32,2.62 372.44,2.56 372.86,2.84 C373.26,3.12 374.44,5.18 374.44,5.18 C374.44,5.18 376.02,3.92 376.52,4.62 C377.02,5.32 377.46,6.4 377.46,6.4 C377.46,6.4 378.9,5.58 379.28,5.58 C379.66,5.58 381.2,8.3 381.66,8.4 C382.12,8.5 384.42,7.68 384.7,8.18 C384.98,8.68 385.14,10.52 385.3,10.56 C385.46,10.6 387.16,10.14 387.5,10.72 C387.84,11.3 387.5,13.12 387.5,13.12 C387.5,13.12 389.66,13.44 389.52,14.2 C389.36,14.96 388.46,15.44 389.02,15.98 C389.58,16.52 390.72,17.16 391.26,17.22 C391.8,17.28 392.14,17.06 392.18,18.24 C392.22,19.42 392.18,20.02 392.18,20.02 C392.18,20.02 392.62,19.96 393.38,20.4 C394.14,20.84 394.08,21.7 394.16,21.82 C394.26,21.94 395.58,22 395.66,23.3 C395.76,24.6 394.62,26.12 394.94,26.44 C395.26,26.76 396.04,26.88 396.64,27.04 C397.24,27.2 397.62,27.7 397.7,28.34 C397.8,28.98 397.08,29.64 397.14,30.14 C397.2,30.64 398.02,31.44 398.18,31.84 C398.34,32.26 397.92,33.62 397.68,33.8 C397.42,33.98 396.58,34.9 396.92,35.06 C397.26,35.22 398.8,35.72 398.72,36.32 C398.62,36.92 397.36,37.64 397.4,38.1 C397.44,38.54 397.14,38.92 397.58,39.2 C398.02,39.48 399.3,41.16 399.08,41.92 C398.86,42.68 397.88,43.46 397.58,43.76 C397.26,44.04 397.8,46.22 397.7,46.68 C397.6,47.12 396.92,48.08 395.98,47.94 C395.04,47.82 396.14,50.38 396.14,50.88 C396.14,51.38 395.94,52.56 394.3,52.72 C394.3,52.72 393.44,52.54 393.5,53.04 C393.56,53.54 394,55.22 393.44,55.6 C392.88,55.98 391.62,55.44 391.52,55.98 C391.42,56.52 391.62,57.24 391.58,57.34 C391.54,57.44 389.34,57.78 389.34,57.88 C389.34,57.98 390,59.46 389.12,60.06 C388.24,60.66 386.54,60.28 386.54,60.28 C386.54,60.28 386.48,60.76 386.1,61.32 C385.72,61.88 385.16,61.32 384.78,61.76 C384.4,62.2 384.72,62.9 384.02,63.16 C383.32,63.42 380.68,62.28 380.18,63.16 C379.68,64.04 379.86,64.94 379.04,65 C378.22,65.06 377.28,64.24 377.02,64.5 C377.02,64.5 376.2,65.9 375.26,65.52 C374.32,65.14 374.26,64.82 374,65.2 C373.74,65.58 373,66.34 372.36,66.08 C371.74,65.82 369.9,64.5 369.22,64.88 C368.52,65.26 368.4,65.96 367.46,65.76 C366.52,65.56 365.38,64.68 365.38,64.68 C365.38,64.68 367.08,73.48 367.46,74.24 C367.84,75 355.26,66.14 351.86,67.92 C351.86,67.92 350.36,59.18 348.46,58.56 C346.58,57.92 340.28,58.82 339.28,57.68 C339.28,57.68 336.96,57.24 337.46,52.72 C337.46,52.72 336.26,52.78 336.18,52.18 C336.08,51.58 336.28,50.48 336.94,50.22 L337.78,49.88 C337.78,49.88 336.4,48.78 336.4,48.2 C336.4,47.62 337.44,47 338,46.94 C338.56,46.88 339.26,46.08 338.98,45.76 C338.7,45.44 336.24,44.34 336.46,43.6 C336.46,43.6 336.5,42.8 337.18,42.44 C337.88,42.08 341.96,41.22 342.36,39.34 C342.36,39.34 340.38,39.06 339.44,36.96 C339.44,36.96 341.3,38.8 342.64,38.88 C342.7,38.84 342.36,35.54 343.92,32.02 z" fill="#F47637" id="path1108"/>
      <path d="M1,20.944 L15.28,20.944 C19.68,20.944 23.04,22.184 25.16,24.264 C26.74,25.904 27.68,28.124 27.68,30.684 L27.68,30.784 C27.68,36.624 23.18,40.024 16.8,40.564 L28.32,55.544 L26.2,55.544 L14.94,40.764 L2.68,40.764 L2.68,55.544 L1,55.544 z M14.84,39.224 C21.96,39.224 26,35.764 26,30.864 L26,30.764 C26,25.584 22,22.464 15.18,22.464 L2.68,22.464 L2.68,39.224 z" fill="#89236B" id="path1110"/>
      <path d="M40.48,20.934 L64.84,20.934 L64.84,22.474 L42.16,22.474 L42.16,37.354 L62.66,37.354 L62.66,38.894 L42.16,38.894 L42.16,54.014 L65.1,54.014 L65.1,55.554 L40.48,55.554 z" fill="#89236B" id="path1112"/>
      <path d="M77.04,20.944 L89.34,20.944 C97.44,20.944 102.48,24.844 102.48,31.424 L102.48,31.524 C102.48,38.444 96.84,42.244 88.98,42.244 L78.7,42.244 L78.7,55.544 L77.02,55.544 L77.02,20.944 z M89.04,40.664 C96.2,40.664 100.8,37.304 100.8,31.564 L100.8,31.464 C100.8,25.784 96.36,22.464 89.18,22.464 L78.7,22.464 L78.7,40.644 L89.04,40.644 z" fill="#89236B" id="path1114"/>
      <path d="M113.56,20.944 L117.46,20.944 L117.46,36.304 L137.42,36.304 L137.42,20.944 L141.32,20.944 L141.32,55.544 L137.42,55.544 L137.42,39.984 L117.46,39.984 L117.46,55.544 L113.56,55.544 z" fill="#89236B" id="path1116"/>
      <path d="M167.6,20.824 L171.26,20.824 L187.02,55.664 L182.82,55.664 L178.76,46.524 L159.94,46.524 L155.84,55.664 L151.84,55.664 z M177.24,43.004 L169.38,25.364 L161.48,43.004 z" fill="#89236B" id="path1118"/>
      <path d="M197.9,20.944 L201.8,20.944 L201.8,55.544 L197.9,55.544 z" fill="#89236B" id="path1120"/>
      <path d="M215.64,20.944 L230.52,20.944 C234.76,20.944 238.18,22.224 240.36,24.404 C242.04,26.084 243.02,28.504 243.02,31.224 L243.02,31.324 C243.02,37.064 239.06,40.424 233.64,41.404 L244.26,55.544 L239.46,55.544 L229.42,42.104 L219.54,42.104 L219.54,55.544 L215.64,55.544 z M230.16,38.584 C235.34,38.584 239.06,35.924 239.06,31.464 L239.06,31.364 C239.06,27.104 235.8,24.544 230.22,24.544 L219.54,24.544 L219.54,38.584 z" fill="#89236B" id="path1122"/>
      <path d="M268.56,20.824 L270.14,20.824 L286.54,55.664 L284.72,55.664 L280.02,45.584 L258.62,45.584 L253.88,55.664 L252.16,55.664 z M279.28,44.044 L269.3,22.804 L259.36,44.044 z" fill="#89236B" id="path1124"/>
      <path d="M301.96,22.484 L289.66,22.484 L289.66,20.944 L316,20.944 L316,22.484 L303.64,22.484 L303.64,55.544 L301.96,55.544 z" fill="#89236B" id="path1126"/>
      <path d="M326.9,20.944 L328.58,20.944 L328.58,55.544 L326.9,55.544 z" fill="#89236B" id="path1128"/>
      <path d="M403.32,20.944 L404.86,20.944 L430.16,52.664 L430.16,20.944 L431.8,20.944 L431.8,55.544 L430.46,55.544 L404.96,23.564 L404.96,55.544 L403.32,55.544 z" fill="#89236B" id="path1130"/>
      <path d="M443.54,50.504 L444.68,49.264 C448.34,52.724 452.38,54.504 457.44,54.504 C463.42,54.504 467.32,51.244 467.32,46.884 L467.32,46.784 C467.32,42.724 465,40.564 456.64,38.824 C448.18,37.144 444.88,34.484 444.88,29.484 L444.88,29.384 C444.88,24.444 449.58,20.444 456.1,20.444 C460.84,20.444 464.6,21.924 467.86,24.504 L466.82,25.844 C463.66,23.324 460.04,21.984 456,21.984 C450.32,21.984 446.56,25.404 446.56,29.244 L446.56,29.344 C446.56,33.344 448.88,35.564 457.28,37.304 C465.88,39.024 469,41.804 469,46.644 L469,46.744 C469,52.084 464.4,56.044 457.34,56.044 C451.94,56.044 447.46,54.104 443.54,50.504 z" fill="#89236B" id="path1132"/>
    </g>
  </g>
</svg>
