<?xml version="1.0" encoding="UTF-8" standalone="no"?>
<svg
   xmlns:dc="http://purl.org/dc/elements/1.1/"
   xmlns:cc="http://creativecommons.org/ns#"
   xmlns:rdf="http://www.w3.org/1999/02/22-rdf-syntax-ns#"
   xmlns:svg="http://www.w3.org/2000/svg"
   xmlns="http://www.w3.org/2000/svg"
   xmlns:sodipodi="http://sodipodi.sourceforge.net/DTD/sodipodi-0.dtd"
   xmlns:inkscape="http://www.inkscape.org/namespaces/inkscape"
   inkscape:version="1.0.1 (c497b03c, 2020-09-10)"
   sodipodi:docname="replogo.svg"
   xml:space="preserve"
   viewBox="0 0 768 81.726723"
   y="0px"
   x="0px"
   id="Layer_1"
   version="1.1"
   width="4in"
   height="0.42566001in"
   inkscape:export-filename="/Users/jag/Desktop/replogo.png"
   inkscape:export-xdpi="959.98999"
   inkscape:export-ydpi="959.98999"><metadata
   id="metadata1447"><rdf:RDF><cc:Work
       rdf:about=""><dc:format>image/svg+xml</dc:format><dc:type
         rdf:resource="http://purl.org/dc/dcmitype/StillImage" /><dc:title></dc:title></cc:Work></rdf:RDF></metadata><defs
   id="defs1445"><rect
   id="rect1742"
   height="81.224648"
   width="233.52084"
   y="58.817844"
   x="10.503187" /><rect
   id="rect1465"
   height="65.819969"
   width="187.30682"
   y="61.268589"
   x="260.82913" />
	
	
	

	
	
	
	
	
	
	
	
	
	
	
	
	
	
	
	
	
	
	
	
	
	
	
	
	
	
	
	
	
	
	
</defs><sodipodi:namedview
   inkscape:current-layer="g1738"
   inkscape:window-maximized="0"
   inkscape:window-y="25"
   inkscape:window-x="0"
   inkscape:cy="39.612655"
   inkscape:cx="109.2956"
   inkscape:zoom="2.856276"
   showgrid="false"
   id="namedview1443"
   inkscape:window-height="822"
   inkscape:window-width="1268"
   inkscape:pageshadow="2"
   inkscape:pageopacity="0"
   guidetolerance="10"
   gridtolerance="10"
   objecttolerance="10"
   borderopacity="1"
   inkscape:document-rotation="0"
   bordercolor="#666666"
   pagecolor="#ffffff"
   units="in"
   fit-margin-top="0"
   fit-margin-left="0"
   fit-margin-right="0"
   fit-margin-bottom="0" />
<style
   id="style1160"
   type="text/css">
	.st0{fill:#FFFFFF;stroke:#FFFFFF;}
	.st1{fill:#F47637;}
	.st2{fill:#89236B;}
	.st3{fill:none;}
	.st4{font-family:'Gadugi';}
	.st5{font-size:16px;}
	.st6{font-size:10px;}
</style>



<g
   id="g1738"
   transform="translate(-10.5,-10.396354)"><g
     id="g2410"
     transform="matrix(2.0000173,0,0,2.0000173,-6.500182,-10.396534)"><path
       inkscape:connector-curvature="0"
       id="path1164"
       d="m 181.96,25.55 c 0,0 -1.88,-0.77 -2.21,-1.77 0,0 0.1,-0.62 -0.09,-0.7 -0.19,-0.08 -0.6,0.02 -0.6,-0.35 0,-0.36 0.09,-0.68 0,-0.85 0,0 -0.64,-0.71 -0.49,-0.87 0.15,-0.16 0.55,-0.87 0.55,-1.08 0,-0.21 -0.44,-0.79 -0.47,-1 -0.03,-0.21 0.28,-1 0.47,-1.03 0.19,-0.03 0.88,0.02 1.04,-0.22 0.16,-0.24 0,-1.06 0,-1.12 0,-0.06 0,-0.06 0,-0.06 0,0 0.09,-0.44 0.6,-0.44 0,0 0.35,0.17 0.42,-0.13 0.08,-0.3 0.06,-0.79 0.06,-0.79 0,0 0.83,0.14 0.9,-0.11 0.06,-0.25 -0.33,-1.12 0,-1.27 0.33,-0.15 0.63,-0.24 0.8,-0.16 0.17,0.08 0.13,0.3 0.53,0.25 0.41,-0.05 0.58,-0.35 0.79,-0.55 0.2,-0.21 0.46,-0.27 0.52,-0.13 0.06,0.14 0.25,0.36 0.44,0.3 0,0 0.13,-0.17 0.14,-0.55 0.02,-0.38 0,-0.55 0,-0.55 h 0.91 c 0,0 -0.19,-0.49 0.17,-0.59 0.36,-0.09 0.83,0.19 0.83,0.19 0,0 0.66,-0.06 0.86,-0.33 0.2,-0.27 0.53,-0.7 1.16,-0.11 0,0 0.5,0.3 0.91,0.05 0.41,-0.25 0.57,-0.71 0.93,-0.63 0,0 -0.11,0.27 0.25,0.09 0.36,-0.17 0.5,-0.6 0.82,-0.63 0.31,-0.03 0.96,-0.06 1.1,0.49 0,0 0.46,0.35 0.61,0.25 0.16,-0.09 0.38,-0.3 0.6,-0.28 0.22,0.02 0.9,-0.14 1.02,-0.08 0.13,0.06 0.69,0.03 0.9,0.17 0.2,0.14 0.79,1.17 0.79,1.17 0,0 0.79,-0.63 1.04,-0.28 0.25,0.35 0.47,0.89 0.47,0.89 0,0 0.72,-0.41 0.91,-0.41 0.19,0 0.96,1.36 1.19,1.41 0.23,0.05 1.38,-0.36 1.52,-0.11 0.14,0.25 0.22,1.17 0.3,1.19 0.08,0.02 0.93,-0.21 1.1,0.08 0.17,0.29 0,1.2 0,1.2 0,0 1.08,0.16 1.01,0.54 -0.08,0.38 -0.53,0.62 -0.25,0.89 0.28,0.27 0.85,0.59 1.12,0.62 0.27,0.03 0.44,-0.08 0.46,0.51 0.02,0.59 0,0.89 0,0.89 0,0 0.22,-0.03 0.6,0.19 0.38,0.22 0.35,0.65 0.39,0.71 0.05,0.06 0.71,0.09 0.75,0.74 0.05,0.65 -0.52,1.41 -0.36,1.57 0.16,0.16 0.55,0.22 0.85,0.3 0.3,0.08 0.49,0.33 0.53,0.65 0.05,0.32 -0.31,0.65 -0.28,0.9 0.03,0.25 0.44,0.65 0.52,0.85 0.08,0.21 -0.13,0.89 -0.25,0.98 -0.13,0.09 -0.55,0.55 -0.38,0.63 0.17,0.08 0.94,0.33 0.9,0.63 -0.05,0.3 -0.68,0.66 -0.66,0.89 0.02,0.22 -0.13,0.41 0.09,0.55 0.22,0.14 0.86,0.98 0.75,1.36 -0.11,0.38 -0.6,0.77 -0.75,0.92 -0.16,0.14 0.11,1.23 0.06,1.46 -0.05,0.22 -0.39,0.7 -0.86,0.63 -0.47,-0.06 0.08,1.22 0.08,1.47 0,0.25 -0.1,0.84 -0.92,0.92 0,0 -0.43,-0.09 -0.4,0.16 0.03,0.25 0.25,1.09 -0.03,1.28 -0.28,0.19 -0.91,-0.08 -0.96,0.19 -0.05,0.27 0.05,0.63 0.03,0.68 -0.02,0.05 -1.12,0.22 -1.12,0.27 0,0.05 0.33,0.79 -0.11,1.09 -0.44,0.3 -1.29,0.11 -1.29,0.11 0,0 -0.03,0.24 -0.22,0.52 -0.19,0.28 -0.47,0 -0.66,0.22 -0.19,0.22 -0.03,0.57 -0.38,0.7 -0.35,0.13 -1.67,-0.44 -1.92,0 -0.25,0.44 -0.16,0.89 -0.57,0.92 -0.41,0.03 -0.88,-0.38 -1.01,-0.25 0,0 -0.41,0.7 -0.88,0.51 -0.47,-0.19 -0.5,-0.35 -0.63,-0.16 -0.13,0.19 -0.5,0.57 -0.82,0.44 -0.31,-0.13 -1.23,-0.79 -1.57,-0.6 -0.35,0.19 -0.41,0.54 -0.88,0.44 -0.47,-0.1 -1.04,-0.54 -1.04,-0.54 0,0 0.85,4.4 1.04,4.78 0.19,0.38 -6.1,-4.05 -7.8,-3.16 0,0 -0.75,-4.37 -1.7,-4.68 -0.94,-0.32 -4.09,0.13 -4.59,-0.44 0,0 -1.16,-0.22 -0.91,-2.48 0,0 -0.6,0.03 -0.64,-0.27 -0.05,-0.3 0.05,-0.85 0.38,-0.98 l 0.42,-0.17 c 0,0 -0.69,-0.55 -0.69,-0.84 0,-0.29 0.52,-0.6 0.8,-0.63 0.28,-0.03 0.63,-0.43 0.49,-0.59 -0.14,-0.16 -1.37,-0.71 -1.26,-1.08 0,0 0.02,-0.4 0.36,-0.58 0.35,-0.18 2.39,-0.61 2.59,-1.55 0,0 -0.99,-0.14 -1.46,-1.19 0,0 0.93,0.92 1.6,0.96 0.03,-0.02 -0.14,-1.67 0.64,-3.43 z"
       class="st1" /><path
       inkscape:connector-curvature="0"
       id="path1166"
       d="m 10.5,19.95 h 7.14 c 2.2,0 3.88,0.62 4.94,1.66 0.79,0.82 1.26,1.93 1.26,3.21 v 0.05 c 0,2.92 -2.25,4.62 -5.44,4.89 l 5.76,7.49 H 23.1 l -5.63,-7.39 h -6.13 v 7.39 H 10.5 Z m 6.92,9.14 c 3.56,0 5.58,-1.73 5.58,-4.18 v -0.05 c 0,-2.59 -2,-4.15 -5.41,-4.15 h -6.25 v 8.38 z"
       class="st2" /><path
       inkscape:connector-curvature="0"
       id="path1168"
       d="m 30.24,19.95 h 12.18 v 0.77 H 31.08 v 7.44 h 10.25 v 0.77 H 31.08 v 7.56 h 11.47 v 0.77 H 30.24 Z"
       class="st2" /><path
       inkscape:connector-curvature="0"
       id="path1170"
       d="m 48.52,19.95 h 6.15 c 4.05,0 6.57,1.95 6.57,5.24 v 0.05 c 0,3.46 -2.82,5.36 -6.75,5.36 h -5.14 v 6.65 h -0.84 v -17.3 z m 6,9.86 c 3.58,0 5.88,-1.68 5.88,-4.55 v -0.05 c 0,-2.84 -2.22,-4.5 -5.81,-4.5 h -5.24 v 9.09 h 5.17 z"
       class="st2" /><path
       inkscape:connector-curvature="0"
       id="path1172"
       d="m 66.78,19.95 h 1.95 v 7.68 h 9.98 v -7.68 h 1.95 v 17.3 h -1.95 v -7.78 h -9.98 v 7.78 h -1.95 z"
       class="st2" /><path
       inkscape:connector-curvature="0"
       id="path1174"
       d="m 93.8,19.83 h 1.83 l 7.88,17.42 h -2.1 l -2.03,-4.57 h -9.41 l -2.05,4.57 h -2 z m 4.82,11.09 -3.93,-8.82 -3.95,8.82 z"
       class="st2" /><path
       inkscape:connector-curvature="0"
       id="path1176"
       d="m 108.95,19.95 h 1.95 v 17.3 h -1.95 z"
       class="st2" /><path
       inkscape:connector-curvature="0"
       id="path1178"
       d="m 117.82,19.95 h 7.44 c 2.12,0 3.83,0.64 4.92,1.73 0.84,0.84 1.33,2.05 1.33,3.41 v 0.05 c 0,2.87 -1.98,4.55 -4.69,5.04 l 5.31,7.07 h -2.4 l -5.02,-6.72 h -4.94 v 6.72 h -1.95 z m 7.26,8.82 c 2.59,0 4.45,-1.33 4.45,-3.56 v -0.05 c 0,-2.13 -1.63,-3.41 -4.42,-3.41 h -5.34 v 7.02 z"
       class="st2" /><path
       inkscape:connector-curvature="0"
       id="path1180"
       d="m 144.28,19.83 h 0.79 l 8.2,17.42 h -0.91 l -2.35,-5.04 h -10.7 l -2.37,5.04 h -0.86 z m 5.36,11.61 -4.99,-10.62 -4.97,10.62 z"
       class="st2" /><path
       inkscape:connector-curvature="0"
       id="path1182"
       d="m 160.98,20.72 h -6.15 V 19.95 H 168 v 0.77 h -6.18 v 16.53 h -0.84 z"
       class="st2" /><path
       inkscape:connector-curvature="0"
       id="path1184"
       d="m 173.45,19.95 h 0.84 v 17.3 h -0.84 z"
       class="st2" /><path
       inkscape:connector-curvature="0"
       id="path1186"
       d="m 211.66,20.44 h 0.77 L 225.08,36.3 V 20.44 h 0.82 v 17.3 h -0.67 L 212.48,21.75 v 15.99 h -0.82 z"
       class="st2" /><path
       inkscape:connector-curvature="0"
       id="path1188"
       d="m 231.77,35.22 0.57,-0.62 c 1.83,1.73 3.85,2.62 6.38,2.62 2.99,0 4.94,-1.63 4.94,-3.81 v -0.05 c 0,-2.03 -1.16,-3.11 -5.34,-3.98 -4.23,-0.84 -5.88,-2.17 -5.88,-4.67 v -0.05 c 0,-2.47 2.35,-4.47 5.61,-4.47 2.37,0 4.25,0.74 5.88,2.03 l -0.52,0.67 c -1.58,-1.26 -3.39,-1.93 -5.41,-1.93 -2.84,0 -4.72,1.71 -4.72,3.63 v 0.05 c 0,2 1.16,3.11 5.36,3.98 4.3,0.86 5.86,2.25 5.86,4.67 v 0.05 c 0,2.67 -2.3,4.65 -5.83,4.65 -2.7,0 -4.94,-0.97 -6.9,-2.77 z"
       class="st2" /><g
       id="g1290"><path
         inkscape:connector-curvature="0"
         id="path1190"
         d="m 15.61,48.07 0.2,0.31 c 0.05,0.08 0.1,0.15 0.14,0.23 h 0.01 c 0.05,-0.09 0.09,-0.16 0.14,-0.23 l 0.2,-0.3 h 0.28 l -0.48,0.69 0.5,0.73 h -0.3 l -0.21,-0.32 c -0.06,-0.08 -0.1,-0.16 -0.15,-0.25 h -0.01 c -0.05,0.08 -0.1,0.16 -0.15,0.25 L 15.57,49.5 H 15.3 l 0.5,-0.72 -0.48,-0.7 h 0.29 z"
         class="st2" /><path
         inkscape:connector-curvature="0"
         id="path1192"
         d="m 18.09,48.77 c 0,0.52 -0.36,0.75 -0.71,0.75 -0.38,0 -0.68,-0.28 -0.68,-0.73 0,-0.48 0.31,-0.75 0.7,-0.75 0.41,0 0.69,0.3 0.69,0.73 z m -1.13,0.02 c 0,0.31 0.18,0.55 0.43,0.55 0.25,0 0.43,-0.23 0.43,-0.55 0,-0.24 -0.12,-0.55 -0.43,-0.55 -0.3,0 -0.43,0.28 -0.43,0.55 z"
         class="st2" /><path
         inkscape:connector-curvature="0"
         id="path1194"
         d="m 18.49,48.07 0.2,0.31 c 0.05,0.08 0.1,0.15 0.14,0.23 h 0.01 c 0.05,-0.09 0.09,-0.16 0.14,-0.23 l 0.2,-0.3 h 0.28 l -0.48,0.69 0.5,0.73 h -0.29 l -0.21,-0.32 c -0.06,-0.08 -0.1,-0.16 -0.15,-0.25 h -0.01 c -0.05,0.08 -0.1,0.16 -0.15,0.25 l -0.21,0.32 h -0.28 l 0.5,-0.72 -0.48,-0.7 h 0.29 z"
         class="st2" /><path
         inkscape:connector-curvature="0"
         id="path1196"
         d="m 20.97,48.77 c 0,0.52 -0.36,0.75 -0.71,0.75 -0.38,0 -0.68,-0.28 -0.68,-0.73 0,-0.48 0.31,-0.75 0.7,-0.75 0.42,0 0.69,0.3 0.69,0.73 z m -1.12,0.02 c 0,0.31 0.18,0.55 0.43,0.55 0.25,0 0.43,-0.23 0.43,-0.55 0,-0.24 -0.12,-0.55 -0.43,-0.55 -0.3,0 -0.43,0.28 -0.43,0.55 z"
         class="st2" /><path
         inkscape:connector-curvature="0"
         id="path1198"
         d="m 21.38,48.07 0.2,0.31 c 0.05,0.08 0.1,0.15 0.14,0.23 h 0.01 c 0.05,-0.09 0.09,-0.16 0.14,-0.23 l 0.2,-0.3 h 0.28 l -0.48,0.69 0.5,0.73 h -0.29 l -0.21,-0.32 c -0.06,-0.08 -0.1,-0.16 -0.15,-0.25 h -0.01 c -0.05,0.08 -0.1,0.16 -0.15,0.25 l -0.21,0.32 h -0.28 l 0.5,-0.72 -0.48,-0.7 h 0.29 z"
         class="st2" /><path
         inkscape:connector-curvature="0"
         id="path1200"
         d="m 23.86,48.77 c 0,0.52 -0.36,0.75 -0.71,0.75 -0.38,0 -0.68,-0.28 -0.68,-0.73 0,-0.48 0.31,-0.75 0.7,-0.75 0.41,0 0.69,0.3 0.69,0.73 z m -1.13,0.02 c 0,0.31 0.18,0.55 0.43,0.55 0.25,0 0.43,-0.23 0.43,-0.55 0,-0.24 -0.12,-0.55 -0.43,-0.55 -0.3,0 -0.43,0.28 -0.43,0.55 z"
         class="st2" /><path
         inkscape:connector-curvature="0"
         id="path1202"
         d="m 24.26,48.07 0.2,0.31 c 0.05,0.08 0.1,0.15 0.14,0.23 h 0.01 c 0.05,-0.09 0.09,-0.16 0.14,-0.23 l 0.2,-0.3 h 0.28 l -0.48,0.69 0.5,0.73 H 24.96 L 24.75,49.18 C 24.69,49.1 24.65,49.02 24.6,48.93 h -0.01 c -0.05,0.08 -0.1,0.16 -0.15,0.25 l -0.21,0.32 h -0.28 l 0.5,-0.72 -0.48,-0.7 h 0.29 z"
         class="st2" /><path
         inkscape:connector-curvature="0"
         id="path1204"
         d="m 26.74,48.77 c 0,0.52 -0.36,0.75 -0.71,0.75 -0.38,0 -0.68,-0.28 -0.68,-0.73 0,-0.48 0.31,-0.75 0.7,-0.75 0.42,0 0.69,0.3 0.69,0.73 z m -1.12,0.02 c 0,0.31 0.18,0.55 0.43,0.55 0.25,0 0.43,-0.23 0.43,-0.55 0,-0.24 -0.12,-0.55 -0.43,-0.55 -0.3,0 -0.43,0.28 -0.43,0.55 z"
         class="st2" /><path
         inkscape:connector-curvature="0"
         id="path1206"
         d="m 27.15,48.07 0.2,0.31 c 0.05,0.08 0.1,0.15 0.14,0.23 h 0.01 c 0.05,-0.09 0.09,-0.16 0.14,-0.23 l 0.2,-0.3 h 0.28 l -0.48,0.69 0.5,0.73 h -0.29 l -0.21,-0.32 c -0.06,-0.08 -0.1,-0.16 -0.15,-0.25 h -0.01 c -0.05,0.08 -0.1,0.16 -0.15,0.25 l -0.21,0.32 h -0.28 l 0.5,-0.72 -0.48,-0.7 h 0.29 z"
         class="st2" /><path
         inkscape:connector-curvature="0"
         id="path1208"
         d="m 29.63,48.77 c 0,0.52 -0.36,0.75 -0.71,0.75 -0.38,0 -0.68,-0.28 -0.68,-0.73 0,-0.48 0.31,-0.75 0.7,-0.75 0.41,0 0.69,0.3 0.69,0.73 z m -1.13,0.02 c 0,0.31 0.18,0.55 0.43,0.55 0.25,0 0.43,-0.23 0.43,-0.55 0,-0.24 -0.12,-0.55 -0.43,-0.55 -0.3,0 -0.43,0.28 -0.43,0.55 z"
         class="st2" /><path
         inkscape:connector-curvature="0"
         id="path1210"
         d="m 30.03,48.07 0.2,0.31 c 0.05,0.08 0.1,0.15 0.14,0.23 h 0.01 c 0.05,-0.09 0.09,-0.16 0.14,-0.23 l 0.2,-0.3 H 31 l -0.48,0.69 0.5,0.73 h -0.29 l -0.21,-0.32 c -0.06,-0.08 -0.1,-0.16 -0.15,-0.25 h -0.01 c -0.05,0.08 -0.1,0.16 -0.15,0.25 L 30,49.5 h -0.28 l 0.5,-0.72 -0.48,-0.7 h 0.29 z"
         class="st2" /><path
         inkscape:connector-curvature="0"
         id="path1212"
         d="m 32.51,48.77 c 0,0.52 -0.36,0.75 -0.71,0.75 -0.38,0 -0.68,-0.28 -0.68,-0.73 0,-0.48 0.31,-0.75 0.7,-0.75 0.42,0 0.69,0.3 0.69,0.73 z m -1.12,0.02 c 0,0.31 0.18,0.55 0.43,0.55 0.25,0 0.43,-0.23 0.43,-0.55 0,-0.24 -0.12,-0.55 -0.43,-0.55 -0.3,0 -0.43,0.28 -0.43,0.55 z"
         class="st2" /><path
         inkscape:connector-curvature="0"
         id="path1214"
         d="m 32.92,48.07 0.2,0.31 c 0.05,0.08 0.1,0.15 0.14,0.23 h 0.01 c 0.05,-0.09 0.09,-0.16 0.14,-0.23 l 0.2,-0.3 h 0.28 l -0.48,0.69 0.5,0.73 h -0.29 l -0.21,-0.32 c -0.06,-0.08 -0.1,-0.16 -0.15,-0.25 h -0.01 c -0.05,0.08 -0.1,0.16 -0.15,0.25 l -0.21,0.32 h -0.28 l 0.5,-0.72 -0.48,-0.7 h 0.29 z"
         class="st2" /><path
         inkscape:connector-curvature="0"
         id="path1216"
         d="m 35.4,48.77 c 0,0.52 -0.36,0.75 -0.71,0.75 -0.38,0 -0.68,-0.28 -0.68,-0.73 0,-0.48 0.31,-0.75 0.7,-0.75 0.41,0 0.69,0.3 0.69,0.73 z m -1.13,0.02 c 0,0.31 0.18,0.55 0.43,0.55 0.25,0 0.43,-0.23 0.43,-0.55 0,-0.24 -0.12,-0.55 -0.43,-0.55 -0.3,0 -0.43,0.28 -0.43,0.55 z"
         class="st2" /><path
         inkscape:connector-curvature="0"
         id="path1218"
         d="m 35.8,48.07 0.2,0.31 c 0.05,0.08 0.1,0.15 0.14,0.23 h 0.01 c 0.05,-0.09 0.09,-0.16 0.14,-0.23 l 0.2,-0.3 h 0.28 l -0.48,0.69 0.5,0.73 H 36.5 l -0.21,-0.32 c -0.06,-0.08 -0.1,-0.16 -0.15,-0.25 h -0.01 c -0.05,0.08 -0.1,0.16 -0.15,0.25 l -0.21,0.32 h -0.28 l 0.5,-0.72 -0.48,-0.7 h 0.29 z"
         class="st2" /><path
         inkscape:connector-curvature="0"
         id="path1220"
         d="m 38.28,48.77 c 0,0.52 -0.36,0.75 -0.71,0.75 -0.38,0 -0.68,-0.28 -0.68,-0.73 0,-0.48 0.31,-0.75 0.7,-0.75 0.42,0 0.69,0.3 0.69,0.73 z m -1.12,0.02 c 0,0.31 0.18,0.55 0.43,0.55 0.25,0 0.43,-0.23 0.43,-0.55 0,-0.24 -0.12,-0.55 -0.43,-0.55 -0.3,0 -0.43,0.28 -0.43,0.55 z"
         class="st2" /><path
         inkscape:connector-curvature="0"
         id="path1222"
         d="m 38.69,48.07 0.2,0.31 c 0.05,0.08 0.1,0.15 0.14,0.23 h 0.01 c 0.05,-0.09 0.09,-0.16 0.14,-0.23 l 0.2,-0.3 h 0.28 l -0.48,0.69 0.5,0.73 h -0.29 l -0.21,-0.32 c -0.06,-0.08 -0.1,-0.16 -0.15,-0.25 h -0.01 c -0.05,0.08 -0.1,0.16 -0.15,0.25 l -0.21,0.32 h -0.28 l 0.5,-0.72 -0.48,-0.7 h 0.29 z"
         class="st2" /><path
         inkscape:connector-curvature="0"
         id="path1224"
         d="m 41.17,48.77 c 0,0.52 -0.36,0.75 -0.71,0.75 -0.38,0 -0.68,-0.28 -0.68,-0.73 0,-0.48 0.31,-0.75 0.7,-0.75 0.41,0 0.69,0.3 0.69,0.73 z m -1.13,0.02 c 0,0.31 0.18,0.55 0.43,0.55 0.25,0 0.43,-0.23 0.43,-0.55 0,-0.24 -0.12,-0.55 -0.43,-0.55 -0.3,0 -0.43,0.28 -0.43,0.55 z"
         class="st2" /><path
         inkscape:connector-curvature="0"
         id="path1226"
         d="m 41.57,48.07 0.2,0.31 c 0.05,0.08 0.1,0.15 0.14,0.23 h 0.01 c 0.05,-0.09 0.09,-0.16 0.14,-0.23 l 0.2,-0.3 h 0.28 l -0.48,0.69 0.5,0.73 H 42.27 L 42.06,49.18 C 42,49.1 41.96,49.02 41.91,48.93 H 41.9 c -0.05,0.08 -0.1,0.16 -0.15,0.25 l -0.21,0.32 h -0.28 l 0.5,-0.72 -0.48,-0.7 h 0.29 z"
         class="st2" /><path
         inkscape:connector-curvature="0"
         id="path1228"
         d="m 44.05,48.77 c 0,0.52 -0.36,0.75 -0.71,0.75 -0.38,0 -0.68,-0.28 -0.68,-0.73 0,-0.48 0.31,-0.75 0.7,-0.75 0.42,0 0.69,0.3 0.69,0.73 z m -1.12,0.02 c 0,0.31 0.18,0.55 0.43,0.55 0.25,0 0.43,-0.23 0.43,-0.55 0,-0.24 -0.12,-0.55 -0.43,-0.55 -0.3,0 -0.43,0.28 -0.43,0.55 z"
         class="st2" /><path
         inkscape:connector-curvature="0"
         id="path1230"
         d="m 44.46,48.07 0.2,0.31 c 0.05,0.08 0.1,0.15 0.14,0.23 h 0.01 c 0.05,-0.09 0.09,-0.16 0.14,-0.23 l 0.2,-0.3 h 0.28 l -0.48,0.69 0.5,0.73 H 45.16 L 44.95,49.18 C 44.89,49.1 44.85,49.02 44.8,48.93 h -0.01 c -0.05,0.08 -0.1,0.16 -0.15,0.25 l -0.21,0.32 h -0.28 l 0.5,-0.72 -0.48,-0.7 h 0.29 z"
         class="st2" /><path
         inkscape:connector-curvature="0"
         id="path1232"
         d="m 46.94,48.77 c 0,0.52 -0.36,0.75 -0.71,0.75 -0.38,0 -0.68,-0.28 -0.68,-0.73 0,-0.48 0.31,-0.75 0.7,-0.75 0.41,0 0.69,0.3 0.69,0.73 z m -1.13,0.02 c 0,0.31 0.18,0.55 0.43,0.55 0.25,0 0.43,-0.23 0.43,-0.55 0,-0.24 -0.12,-0.55 -0.43,-0.55 -0.29,0 -0.43,0.28 -0.43,0.55 z"
         class="st2" /><path
         inkscape:connector-curvature="0"
         id="path1234"
         d="m 47.34,48.07 0.2,0.31 c 0.05,0.08 0.1,0.15 0.14,0.23 h 0.01 c 0.05,-0.09 0.09,-0.16 0.14,-0.23 l 0.2,-0.3 h 0.28 l -0.48,0.69 0.5,0.73 h -0.29 l -0.21,-0.32 c -0.06,-0.08 -0.1,-0.16 -0.15,-0.25 h -0.01 c -0.05,0.08 -0.1,0.16 -0.15,0.25 l -0.21,0.32 h -0.28 l 0.5,-0.72 -0.48,-0.7 h 0.29 z"
         class="st2" /><path
         inkscape:connector-curvature="0"
         id="path1236"
         d="m 49.82,48.77 c 0,0.52 -0.36,0.75 -0.71,0.75 -0.38,0 -0.68,-0.28 -0.68,-0.73 0,-0.48 0.31,-0.75 0.7,-0.75 0.42,0 0.69,0.3 0.69,0.73 z m -1.12,0.02 c 0,0.31 0.18,0.55 0.43,0.55 0.25,0 0.43,-0.23 0.43,-0.55 0,-0.24 -0.12,-0.55 -0.43,-0.55 -0.3,0 -0.43,0.28 -0.43,0.55 z"
         class="st2" /><path
         inkscape:connector-curvature="0"
         id="path1238"
         d="m 50.23,48.07 0.2,0.31 c 0.05,0.08 0.1,0.15 0.14,0.23 h 0.01 c 0.05,-0.09 0.09,-0.16 0.14,-0.23 l 0.2,-0.3 h 0.28 l -0.48,0.69 0.5,0.73 h -0.29 l -0.21,-0.32 c -0.06,-0.08 -0.1,-0.16 -0.15,-0.25 h -0.01 c -0.05,0.08 -0.1,0.16 -0.15,0.25 L 50.2,49.5 h -0.28 l 0.5,-0.72 -0.48,-0.7 h 0.29 z"
         class="st2" /><path
         inkscape:connector-curvature="0"
         id="path1240"
         d="m 52.71,48.77 c 0,0.52 -0.36,0.75 -0.71,0.75 -0.38,0 -0.68,-0.28 -0.68,-0.73 0,-0.48 0.31,-0.75 0.7,-0.75 0.41,0 0.69,0.3 0.69,0.73 z m -1.13,0.02 c 0,0.31 0.18,0.55 0.43,0.55 0.25,0 0.43,-0.23 0.43,-0.55 0,-0.24 -0.12,-0.55 -0.43,-0.55 -0.29,0 -0.43,0.28 -0.43,0.55 z"
         class="st2" /><path
         inkscape:connector-curvature="0"
         id="path1242"
         d="m 53.12,48.07 0.2,0.31 c 0.05,0.08 0.1,0.15 0.14,0.23 h 0.01 c 0.05,-0.09 0.09,-0.16 0.14,-0.23 l 0.2,-0.3 h 0.28 l -0.48,0.69 0.5,0.73 h -0.29 l -0.21,-0.32 c -0.06,-0.08 -0.1,-0.16 -0.15,-0.25 h -0.01 c -0.05,0.08 -0.1,0.16 -0.15,0.25 L 53.09,49.5 H 52.8 l 0.5,-0.72 -0.48,-0.7 h 0.3 z"
         class="st2" /><path
         inkscape:connector-curvature="0"
         id="path1244"
         d="m 55.59,48.77 c 0,0.52 -0.36,0.75 -0.71,0.75 -0.38,0 -0.68,-0.28 -0.68,-0.73 0,-0.48 0.31,-0.75 0.7,-0.75 0.42,0 0.69,0.3 0.69,0.73 z m -1.12,0.02 c 0,0.31 0.18,0.55 0.43,0.55 0.25,0 0.43,-0.23 0.43,-0.55 0,-0.24 -0.12,-0.55 -0.43,-0.55 -0.3,0 -0.43,0.28 -0.43,0.55 z"
         class="st2" /><path
         inkscape:connector-curvature="0"
         id="path1246"
         d="m 56,48.07 0.2,0.31 c 0.05,0.08 0.1,0.15 0.14,0.23 h 0.01 c 0.05,-0.09 0.09,-0.16 0.14,-0.23 l 0.2,-0.3 h 0.28 l -0.48,0.69 0.5,0.73 H 56.7 l -0.21,-0.32 c -0.06,-0.08 -0.1,-0.16 -0.15,-0.25 h -0.01 c -0.05,0.08 -0.1,0.16 -0.15,0.25 l -0.21,0.32 h -0.28 l 0.5,-0.72 -0.48,-0.7 H 56 Z"
         class="st2" /><path
         inkscape:connector-curvature="0"
         id="path1248"
         d="m 58.48,48.77 c 0,0.52 -0.36,0.75 -0.71,0.75 -0.38,0 -0.68,-0.28 -0.68,-0.73 0,-0.48 0.31,-0.75 0.7,-0.75 0.41,0 0.69,0.3 0.69,0.73 z m -1.13,0.02 c 0,0.31 0.18,0.55 0.43,0.55 0.25,0 0.43,-0.23 0.43,-0.55 0,-0.24 -0.12,-0.55 -0.43,-0.55 -0.29,0 -0.43,0.28 -0.43,0.55 z"
         class="st2" /><path
         inkscape:connector-curvature="0"
         id="path1250"
         d="m 58.89,48.07 0.2,0.31 c 0.05,0.08 0.1,0.15 0.14,0.23 h 0.01 c 0.05,-0.09 0.09,-0.16 0.14,-0.23 l 0.2,-0.3 h 0.28 l -0.48,0.69 0.5,0.73 h -0.29 l -0.21,-0.32 c -0.06,-0.08 -0.1,-0.16 -0.15,-0.25 h -0.01 c -0.05,0.08 -0.1,0.16 -0.15,0.25 l -0.21,0.32 h -0.28 l 0.5,-0.72 -0.48,-0.7 h 0.29 z"
         class="st2" /><path
         inkscape:connector-curvature="0"
         id="path1252"
         d="m 61.36,48.77 c 0,0.52 -0.36,0.75 -0.71,0.75 -0.38,0 -0.68,-0.28 -0.68,-0.73 0,-0.48 0.31,-0.75 0.7,-0.75 0.42,0 0.69,0.3 0.69,0.73 z m -1.12,0.02 c 0,0.31 0.18,0.55 0.43,0.55 0.25,0 0.43,-0.23 0.43,-0.55 0,-0.24 -0.12,-0.55 -0.43,-0.55 -0.3,0 -0.43,0.28 -0.43,0.55 z"
         class="st2" /><path
         inkscape:connector-curvature="0"
         id="path1254"
         d="m 61.77,48.07 0.2,0.31 c 0.05,0.08 0.1,0.15 0.14,0.23 h 0.01 c 0.05,-0.09 0.09,-0.16 0.14,-0.23 l 0.2,-0.3 h 0.28 l -0.48,0.69 0.5,0.73 H 62.47 L 62.26,49.18 C 62.2,49.1 62.16,49.02 62.11,48.93 H 62.1 c -0.05,0.08 -0.1,0.16 -0.15,0.25 l -0.21,0.32 h -0.28 l 0.5,-0.72 -0.48,-0.7 h 0.29 z"
         class="st2" /><path
         inkscape:connector-curvature="0"
         id="path1256"
         d="m 64.25,48.77 c 0,0.52 -0.36,0.75 -0.71,0.75 -0.38,0 -0.68,-0.28 -0.68,-0.73 0,-0.48 0.31,-0.75 0.7,-0.75 0.41,0 0.69,0.3 0.69,0.73 z m -1.13,0.02 c 0,0.31 0.18,0.55 0.43,0.55 0.25,0 0.43,-0.23 0.43,-0.55 0,-0.24 -0.12,-0.55 -0.43,-0.55 -0.29,0 -0.43,0.28 -0.43,0.55 z"
         class="st2" /><path
         inkscape:connector-curvature="0"
         id="path1258"
         d="m 64.66,48.07 0.2,0.31 c 0.05,0.08 0.1,0.15 0.14,0.23 h 0.01 c 0.05,-0.09 0.09,-0.16 0.14,-0.23 l 0.2,-0.3 h 0.28 l -0.48,0.69 0.5,0.73 H 65.36 L 65.15,49.18 C 65.09,49.1 65.05,49.02 65,48.93 h -0.01 c -0.05,0.08 -0.1,0.16 -0.15,0.25 l -0.21,0.32 h -0.28 l 0.5,-0.72 -0.48,-0.7 h 0.29 z"
         class="st2" /><path
         inkscape:connector-curvature="0"
         id="path1260"
         d="m 67.14,48.77 c 0,0.52 -0.36,0.75 -0.71,0.75 -0.38,0 -0.68,-0.28 -0.68,-0.73 0,-0.48 0.31,-0.75 0.7,-0.75 0.41,0 0.69,0.3 0.69,0.73 z m -1.13,0.02 c 0,0.31 0.18,0.55 0.43,0.55 0.25,0 0.43,-0.23 0.43,-0.55 0,-0.24 -0.12,-0.55 -0.43,-0.55 -0.3,0 -0.43,0.28 -0.43,0.55 z"
         class="st2" /><path
         inkscape:connector-curvature="0"
         id="path1262"
         d="m 67.54,48.07 0.2,0.31 c 0.05,0.08 0.1,0.15 0.14,0.23 h 0.01 c 0.05,-0.09 0.09,-0.16 0.14,-0.23 l 0.2,-0.3 h 0.28 l -0.48,0.69 0.5,0.73 h -0.29 l -0.21,-0.32 c -0.06,-0.08 -0.1,-0.16 -0.15,-0.25 h -0.01 c -0.05,0.08 -0.1,0.16 -0.15,0.25 l -0.21,0.32 h -0.28 l 0.5,-0.72 -0.48,-0.7 h 0.29 z"
         class="st2" /><path
         inkscape:connector-curvature="0"
         id="path1264"
         d="m 70.02,48.77 c 0,0.52 -0.36,0.75 -0.71,0.75 -0.38,0 -0.68,-0.28 -0.68,-0.73 0,-0.48 0.31,-0.75 0.7,-0.75 0.41,0 0.69,0.3 0.69,0.73 z m -1.13,0.02 c 0,0.31 0.18,0.55 0.43,0.55 0.25,0 0.43,-0.23 0.43,-0.55 0,-0.24 -0.12,-0.55 -0.43,-0.55 -0.29,0 -0.43,0.28 -0.43,0.55 z"
         class="st2" /><path
         inkscape:connector-curvature="0"
         id="path1266"
         d="m 70.43,48.07 0.2,0.31 c 0.05,0.08 0.1,0.15 0.14,0.23 h 0.01 c 0.05,-0.09 0.09,-0.16 0.14,-0.23 l 0.2,-0.3 h 0.28 l -0.48,0.69 0.5,0.73 h -0.29 l -0.21,-0.32 c -0.06,-0.08 -0.1,-0.16 -0.15,-0.25 h -0.01 c -0.05,0.08 -0.1,0.16 -0.15,0.25 L 70.4,49.5 h -0.28 l 0.5,-0.72 -0.48,-0.7 h 0.29 z"
         class="st2" /><path
         inkscape:connector-curvature="0"
         id="path1268"
         d="m 72.91,48.77 c 0,0.52 -0.36,0.75 -0.71,0.75 -0.38,0 -0.68,-0.28 -0.68,-0.73 0,-0.48 0.31,-0.75 0.7,-0.75 0.41,0 0.69,0.3 0.69,0.73 z m -1.13,0.02 c 0,0.31 0.18,0.55 0.43,0.55 0.25,0 0.43,-0.23 0.43,-0.55 0,-0.24 -0.12,-0.55 -0.43,-0.55 -0.3,0 -0.43,0.28 -0.43,0.55 z"
         class="st2" /><path
         inkscape:connector-curvature="0"
         id="path1270"
         d="m 73.31,48.07 0.2,0.31 c 0.05,0.08 0.1,0.15 0.14,0.23 h 0.01 c 0.05,-0.09 0.09,-0.16 0.14,-0.23 l 0.2,-0.3 h 0.28 l -0.48,0.69 0.5,0.73 H 74.01 L 73.8,49.18 C 73.74,49.1 73.7,49.02 73.65,48.93 h -0.01 c -0.05,0.08 -0.1,0.16 -0.15,0.25 L 73.28,49.5 H 73 l 0.5,-0.72 -0.48,-0.7 h 0.29 z"
         class="st2" /><path
         inkscape:connector-curvature="0"
         id="path1272"
         d="m 75.79,48.77 c 0,0.52 -0.36,0.75 -0.71,0.75 -0.38,0 -0.68,-0.28 -0.68,-0.73 0,-0.48 0.31,-0.75 0.7,-0.75 0.41,0 0.69,0.3 0.69,0.73 z m -1.13,0.02 c 0,0.31 0.18,0.55 0.43,0.55 0.25,0 0.43,-0.23 0.43,-0.55 0,-0.24 -0.12,-0.55 -0.43,-0.55 -0.29,0 -0.43,0.28 -0.43,0.55 z"
         class="st2" /><path
         inkscape:connector-curvature="0"
         id="path1274"
         d="m 76.2,48.07 0.2,0.31 c 0.05,0.08 0.1,0.15 0.14,0.23 h 0.01 c 0.05,-0.09 0.09,-0.16 0.14,-0.23 l 0.2,-0.3 h 0.28 l -0.48,0.69 0.5,0.73 H 76.9 l -0.21,-0.32 c -0.06,-0.08 -0.1,-0.16 -0.15,-0.25 h -0.01 c -0.05,0.08 -0.1,0.16 -0.15,0.25 l -0.21,0.32 h -0.28 l 0.5,-0.72 -0.48,-0.7 h 0.29 z"
         class="st2" /><path
         inkscape:connector-curvature="0"
         id="path1276"
         d="m 78.68,48.77 c 0,0.52 -0.36,0.75 -0.71,0.75 -0.38,0 -0.68,-0.28 -0.68,-0.73 0,-0.48 0.31,-0.75 0.7,-0.75 0.41,0 0.69,0.3 0.69,0.73 z m -1.13,0.02 c 0,0.31 0.18,0.55 0.43,0.55 0.25,0 0.43,-0.23 0.43,-0.55 0,-0.24 -0.12,-0.55 -0.43,-0.55 -0.3,0 -0.43,0.28 -0.43,0.55 z"
         class="st2" /><path
         inkscape:connector-curvature="0"
         id="path1278"
         d="m 79.08,48.07 0.2,0.31 c 0.05,0.08 0.1,0.15 0.14,0.23 h 0.01 c 0.05,-0.09 0.09,-0.16 0.14,-0.23 l 0.2,-0.3 h 0.28 l -0.48,0.69 0.5,0.73 h -0.29 l -0.21,-0.32 c -0.06,-0.08 -0.1,-0.16 -0.15,-0.25 h -0.01 c -0.05,0.08 -0.1,0.16 -0.15,0.25 l -0.21,0.32 h -0.28 l 0.5,-0.72 -0.48,-0.7 h 0.29 z"
         class="st2" /><path
         inkscape:connector-curvature="0"
         id="path1280"
         d="m 81.56,48.77 c 0,0.52 -0.36,0.75 -0.71,0.75 -0.38,0 -0.68,-0.28 -0.68,-0.73 0,-0.48 0.31,-0.75 0.7,-0.75 0.41,0 0.69,0.3 0.69,0.73 z m -1.13,0.02 c 0,0.31 0.18,0.55 0.43,0.55 0.25,0 0.43,-0.23 0.43,-0.55 0,-0.24 -0.12,-0.55 -0.43,-0.55 -0.29,0 -0.43,0.28 -0.43,0.55 z"
         class="st2" /><path
         inkscape:connector-curvature="0"
         id="path1282"
         d="m 81.97,48.07 0.2,0.31 c 0.05,0.08 0.1,0.15 0.14,0.23 h 0.01 c 0.05,-0.09 0.09,-0.16 0.14,-0.23 l 0.2,-0.3 h 0.28 l -0.48,0.69 0.5,0.73 H 82.67 L 82.46,49.18 C 82.4,49.1 82.36,49.02 82.31,48.93 H 82.3 c -0.05,0.08 -0.1,0.16 -0.15,0.25 l -0.21,0.32 h -0.28 l 0.5,-0.72 -0.48,-0.7 h 0.29 z"
         class="st2" /><path
         inkscape:connector-curvature="0"
         id="path1284"
         d="m 84.45,48.77 c 0,0.52 -0.36,0.75 -0.71,0.75 -0.38,0 -0.68,-0.28 -0.68,-0.73 0,-0.48 0.31,-0.75 0.7,-0.75 0.41,0 0.69,0.3 0.69,0.73 z m -1.13,0.02 c 0,0.31 0.18,0.55 0.43,0.55 0.25,0 0.43,-0.23 0.43,-0.55 0,-0.24 -0.12,-0.55 -0.43,-0.55 -0.3,0 -0.43,0.28 -0.43,0.55 z"
         class="st2" /><path
         inkscape:connector-curvature="0"
         id="path1286"
         d="m 84.85,48.07 0.2,0.31 c 0.05,0.08 0.1,0.15 0.14,0.23 h 0.01 c 0.05,-0.09 0.09,-0.16 0.14,-0.23 l 0.2,-0.3 h 0.28 l -0.48,0.69 0.5,0.73 h -0.29 l -0.21,-0.32 c -0.06,-0.08 -0.1,-0.16 -0.15,-0.25 h -0.01 c -0.05,0.08 -0.1,0.16 -0.15,0.25 l -0.21,0.32 h -0.28 l 0.5,-0.72 -0.48,-0.7 h 0.29 z"
         class="st2" /><path
         inkscape:connector-curvature="0"
         id="path1288"
         d="m 87.33,48.77 c 0,0.52 -0.36,0.75 -0.71,0.75 -0.38,0 -0.68,-0.28 -0.68,-0.73 0,-0.48 0.31,-0.75 0.7,-0.75 0.41,0 0.69,0.3 0.69,0.73 z m -1.13,0.02 c 0,0.31 0.18,0.55 0.43,0.55 0.25,0 0.43,-0.23 0.43,-0.55 0,-0.24 -0.12,-0.55 -0.43,-0.55 -0.29,0 -0.43,0.28 -0.43,0.55 z"
         class="st2" /></g><g
       id="g1392"><path
         inkscape:connector-curvature="0"
         id="path1292"
         d="m 162.74,48.07 0.2,0.31 c 0.05,0.08 0.1,0.15 0.14,0.23 h 0.01 c 0.05,-0.09 0.09,-0.16 0.14,-0.23 l 0.2,-0.3 h 0.28 l -0.48,0.69 0.5,0.73 h -0.29 l -0.21,-0.32 c -0.06,-0.08 -0.1,-0.16 -0.15,-0.25 h -0.01 c -0.05,0.08 -0.1,0.16 -0.15,0.25 l -0.21,0.32 h -0.28 l 0.5,-0.72 -0.48,-0.7 h 0.29 z"
         class="st2" /><path
         inkscape:connector-curvature="0"
         id="path1294"
         d="m 165.22,48.77 c 0,0.52 -0.36,0.75 -0.71,0.75 -0.38,0 -0.68,-0.28 -0.68,-0.73 0,-0.48 0.31,-0.75 0.7,-0.75 0.42,0 0.69,0.3 0.69,0.73 z m -1.13,0.02 c 0,0.31 0.18,0.55 0.43,0.55 0.25,0 0.43,-0.23 0.43,-0.55 0,-0.24 -0.12,-0.55 -0.43,-0.55 -0.29,0 -0.43,0.28 -0.43,0.55 z"
         class="st2" /><path
         inkscape:connector-curvature="0"
         id="path1296"
         d="m 165.63,48.07 0.2,0.31 c 0.05,0.08 0.1,0.15 0.14,0.23 h 0.01 c 0.05,-0.09 0.09,-0.16 0.14,-0.23 l 0.2,-0.3 h 0.28 l -0.48,0.69 0.5,0.73 h -0.29 l -0.21,-0.32 c -0.06,-0.08 -0.1,-0.16 -0.15,-0.25 h -0.01 c -0.05,0.08 -0.1,0.16 -0.15,0.25 l -0.2,0.32 h -0.29 l 0.51,-0.72 -0.48,-0.7 h 0.28 z"
         class="st2" /><path
         inkscape:connector-curvature="0"
         id="path1298"
         d="m 168.11,48.77 c 0,0.52 -0.36,0.75 -0.71,0.75 -0.38,0 -0.68,-0.28 -0.68,-0.73 0,-0.48 0.31,-0.75 0.7,-0.75 0.41,0 0.69,0.3 0.69,0.73 z m -1.13,0.02 c 0,0.31 0.18,0.55 0.43,0.55 0.25,0 0.43,-0.23 0.43,-0.55 0,-0.24 -0.12,-0.55 -0.42,-0.55 -0.31,0 -0.44,0.28 -0.44,0.55 z"
         class="st2" /><path
         inkscape:connector-curvature="0"
         id="path1300"
         d="m 168.51,48.07 0.2,0.31 c 0.05,0.08 0.1,0.15 0.14,0.23 h 0.01 c 0.05,-0.09 0.09,-0.16 0.14,-0.23 l 0.2,-0.3 h 0.28 l -0.48,0.68 0.5,0.73 h -0.29 L 169,49.17 c -0.06,-0.08 -0.1,-0.16 -0.15,-0.25 h -0.01 c -0.05,0.08 -0.1,0.16 -0.15,0.25 l -0.21,0.32 h -0.28 l 0.5,-0.72 -0.48,-0.7 z"
         class="st2" /><path
         inkscape:connector-curvature="0"
         id="path1302"
         d="m 170.99,48.77 c 0,0.52 -0.36,0.75 -0.71,0.75 -0.38,0 -0.68,-0.28 -0.68,-0.73 0,-0.48 0.31,-0.75 0.7,-0.75 0.42,0 0.69,0.3 0.69,0.73 z m -1.12,0.02 c 0,0.31 0.18,0.55 0.43,0.55 0.25,0 0.43,-0.23 0.43,-0.55 0,-0.24 -0.12,-0.55 -0.43,-0.55 -0.31,0 -0.43,0.28 -0.43,0.55 z"
         class="st2" /><path
         inkscape:connector-curvature="0"
         id="path1304"
         d="m 171.4,48.07 0.2,0.31 c 0.05,0.08 0.1,0.15 0.14,0.23 h 0.01 c 0.05,-0.09 0.09,-0.16 0.14,-0.23 l 0.2,-0.3 h 0.28 l -0.48,0.69 0.5,0.73 h -0.29 l -0.21,-0.32 c -0.06,-0.08 -0.1,-0.16 -0.15,-0.25 h -0.01 c -0.05,0.08 -0.1,0.16 -0.15,0.25 l -0.21,0.32 h -0.28 l 0.5,-0.72 -0.48,-0.7 h 0.29 z"
         class="st2" /><path
         inkscape:connector-curvature="0"
         id="path1306"
         d="m 173.88,48.77 c 0,0.52 -0.36,0.75 -0.71,0.75 -0.38,0 -0.68,-0.28 -0.68,-0.73 0,-0.48 0.31,-0.75 0.7,-0.75 0.41,0 0.69,0.3 0.69,0.73 z m -1.13,0.02 c 0,0.31 0.18,0.55 0.43,0.55 0.25,0 0.43,-0.23 0.43,-0.55 0,-0.24 -0.12,-0.55 -0.43,-0.55 -0.31,0 -0.43,0.28 -0.43,0.55 z"
         class="st2" /><path
         inkscape:connector-curvature="0"
         id="path1308"
         d="m 174.28,48.07 0.2,0.31 c 0.05,0.08 0.1,0.15 0.14,0.23 h 0.01 c 0.05,-0.09 0.09,-0.16 0.14,-0.23 l 0.2,-0.3 h 0.28 l -0.48,0.69 0.5,0.73 h -0.29 l -0.21,-0.32 c -0.06,-0.08 -0.1,-0.16 -0.15,-0.25 h -0.01 c -0.05,0.08 -0.1,0.16 -0.15,0.25 l -0.2,0.32 h -0.29 l 0.51,-0.72 -0.48,-0.7 h 0.28 z"
         class="st2" /><path
         inkscape:connector-curvature="0"
         id="path1310"
         d="m 176.76,48.77 c 0,0.52 -0.36,0.75 -0.71,0.75 -0.38,0 -0.68,-0.28 -0.68,-0.73 0,-0.48 0.31,-0.75 0.7,-0.75 0.42,0 0.69,0.3 0.69,0.73 z m -1.12,0.02 c 0,0.31 0.18,0.55 0.43,0.55 0.25,0 0.43,-0.23 0.43,-0.55 0,-0.24 -0.12,-0.55 -0.42,-0.55 -0.31,0 -0.44,0.28 -0.44,0.55 z"
         class="st2" /><path
         inkscape:connector-curvature="0"
         id="path1312"
         d="m 177.17,48.07 0.2,0.31 c 0.05,0.08 0.1,0.15 0.14,0.23 h 0.01 c 0.05,-0.09 0.09,-0.16 0.14,-0.23 l 0.2,-0.3 h 0.28 l -0.48,0.69 0.5,0.73 h -0.29 l -0.21,-0.32 c -0.06,-0.08 -0.1,-0.16 -0.15,-0.25 h -0.01 c -0.05,0.08 -0.1,0.16 -0.15,0.25 l -0.21,0.32 h -0.28 l 0.5,-0.72 -0.48,-0.7 h 0.29 z"
         class="st2" /><path
         inkscape:connector-curvature="0"
         id="path1314"
         d="m 179.65,48.77 c 0,0.52 -0.36,0.75 -0.71,0.75 -0.38,0 -0.68,-0.28 -0.68,-0.73 0,-0.48 0.31,-0.75 0.7,-0.75 0.41,0 0.69,0.3 0.69,0.73 z m -1.13,0.02 c 0,0.31 0.18,0.55 0.43,0.55 0.25,0 0.43,-0.23 0.43,-0.55 0,-0.24 -0.12,-0.55 -0.43,-0.55 -0.31,0 -0.43,0.28 -0.43,0.55 z"
         class="st2" /><path
         inkscape:connector-curvature="0"
         id="path1316"
         d="m 180.05,48.07 0.2,0.31 c 0.05,0.08 0.1,0.15 0.14,0.23 h 0.01 c 0.05,-0.09 0.09,-0.16 0.14,-0.23 l 0.2,-0.3 h 0.28 l -0.48,0.69 0.5,0.73 h -0.29 l -0.21,-0.32 c -0.06,-0.08 -0.1,-0.16 -0.15,-0.25 h -0.01 c -0.05,0.08 -0.1,0.16 -0.15,0.25 l -0.21,0.32 h -0.28 l 0.5,-0.72 -0.48,-0.7 h 0.29 z"
         class="st2" /><path
         inkscape:connector-curvature="0"
         id="path1318"
         d="m 182.53,48.77 c 0,0.52 -0.36,0.75 -0.71,0.75 -0.38,0 -0.68,-0.28 -0.68,-0.73 0,-0.48 0.31,-0.75 0.7,-0.75 0.42,0 0.69,0.3 0.69,0.73 z m -1.12,0.02 c 0,0.31 0.18,0.55 0.43,0.55 0.25,0 0.43,-0.23 0.43,-0.55 0,-0.24 -0.12,-0.55 -0.43,-0.55 -0.31,0 -0.43,0.28 -0.43,0.55 z"
         class="st2" /><path
         inkscape:connector-curvature="0"
         id="path1320"
         d="m 182.94,48.07 0.2,0.31 c 0.05,0.08 0.1,0.15 0.14,0.23 h 0.01 c 0.05,-0.09 0.09,-0.16 0.14,-0.23 l 0.2,-0.3 h 0.28 l -0.48,0.69 0.5,0.73 h -0.29 l -0.21,-0.32 c -0.06,-0.08 -0.1,-0.16 -0.15,-0.25 h -0.01 c -0.05,0.08 -0.1,0.16 -0.15,0.25 l -0.2,0.32 h -0.29 l 0.51,-0.72 -0.48,-0.7 h 0.28 z"
         class="st2" /><path
         inkscape:connector-curvature="0"
         id="path1322"
         d="m 185.42,48.77 c 0,0.52 -0.36,0.75 -0.71,0.75 -0.38,0 -0.68,-0.28 -0.68,-0.73 0,-0.48 0.31,-0.75 0.7,-0.75 0.41,0 0.69,0.3 0.69,0.73 z m -1.13,0.02 c 0,0.31 0.18,0.55 0.43,0.55 0.25,0 0.43,-0.23 0.43,-0.55 0,-0.24 -0.12,-0.55 -0.42,-0.55 -0.31,0 -0.44,0.28 -0.44,0.55 z"
         class="st2" /><path
         inkscape:connector-curvature="0"
         id="path1324"
         d="m 185.82,48.07 0.2,0.31 c 0.05,0.08 0.1,0.15 0.14,0.23 h 0.01 c 0.05,-0.09 0.09,-0.16 0.14,-0.23 l 0.2,-0.3 h 0.28 l -0.48,0.69 0.5,0.73 h -0.29 l -0.21,-0.32 c -0.06,-0.08 -0.1,-0.16 -0.15,-0.25 h -0.01 c -0.05,0.08 -0.1,0.16 -0.15,0.25 l -0.21,0.32 h -0.28 l 0.5,-0.72 -0.48,-0.7 h 0.29 z"
         class="st2" /><path
         inkscape:connector-curvature="0"
         id="path1326"
         d="m 188.3,48.77 c 0,0.52 -0.36,0.75 -0.71,0.75 -0.38,0 -0.68,-0.28 -0.68,-0.73 0,-0.48 0.31,-0.75 0.7,-0.75 0.42,0 0.69,0.3 0.69,0.73 z m -1.12,0.02 c 0,0.31 0.18,0.55 0.43,0.55 0.25,0 0.43,-0.23 0.43,-0.55 0,-0.24 -0.12,-0.55 -0.43,-0.55 -0.31,0 -0.43,0.28 -0.43,0.55 z"
         class="st2" /><path
         inkscape:connector-curvature="0"
         id="path1328"
         d="m 188.71,48.07 0.2,0.31 c 0.05,0.08 0.1,0.15 0.14,0.23 h 0.01 c 0.05,-0.09 0.09,-0.16 0.14,-0.23 l 0.2,-0.3 h 0.28 l -0.48,0.69 0.5,0.73 h -0.29 l -0.21,-0.32 c -0.06,-0.08 -0.1,-0.16 -0.15,-0.25 h -0.01 c -0.05,0.08 -0.1,0.16 -0.15,0.25 l -0.2,0.32 h -0.29 l 0.51,-0.72 -0.48,-0.7 h 0.28 z"
         class="st2" /><path
         inkscape:connector-curvature="0"
         id="path1330"
         d="m 191.19,48.77 c 0,0.52 -0.36,0.75 -0.71,0.75 -0.38,0 -0.68,-0.28 -0.68,-0.73 0,-0.48 0.31,-0.75 0.7,-0.75 0.41,0 0.69,0.3 0.69,0.73 z m -1.13,0.02 c 0,0.31 0.18,0.55 0.43,0.55 0.25,0 0.43,-0.23 0.43,-0.55 0,-0.24 -0.12,-0.55 -0.42,-0.55 -0.31,0 -0.44,0.28 -0.44,0.55 z"
         class="st2" /><path
         inkscape:connector-curvature="0"
         id="path1332"
         d="m 191.59,48.07 0.2,0.31 c 0.05,0.08 0.1,0.15 0.14,0.23 h 0.01 c 0.05,-0.09 0.09,-0.16 0.14,-0.23 l 0.2,-0.3 h 0.28 l -0.48,0.69 0.5,0.73 h -0.29 l -0.21,-0.32 c -0.06,-0.08 -0.1,-0.16 -0.15,-0.25 h -0.01 c -0.05,0.08 -0.1,0.16 -0.15,0.25 l -0.21,0.32 h -0.28 l 0.5,-0.72 -0.48,-0.7 h 0.29 z"
         class="st2" /><path
         inkscape:connector-curvature="0"
         id="path1334"
         d="m 194.07,48.77 c 0,0.52 -0.36,0.75 -0.71,0.75 -0.38,0 -0.68,-0.28 -0.68,-0.73 0,-0.48 0.31,-0.75 0.7,-0.75 0.42,0 0.69,0.3 0.69,0.73 z m -1.12,0.02 c 0,0.31 0.18,0.55 0.43,0.55 0.25,0 0.43,-0.23 0.43,-0.55 0,-0.24 -0.12,-0.55 -0.43,-0.55 -0.31,0 -0.43,0.28 -0.43,0.55 z"
         class="st2" /><path
         inkscape:connector-curvature="0"
         id="path1336"
         d="m 194.48,48.07 0.2,0.31 c 0.05,0.08 0.1,0.15 0.14,0.23 h 0.01 c 0.05,-0.09 0.09,-0.16 0.14,-0.23 l 0.2,-0.3 h 0.28 l -0.48,0.69 0.5,0.73 h -0.29 l -0.21,-0.32 c -0.06,-0.08 -0.1,-0.16 -0.15,-0.25 h -0.01 c -0.05,0.08 -0.1,0.16 -0.15,0.25 l -0.21,0.32 h -0.28 l 0.5,-0.72 -0.48,-0.7 h 0.29 z"
         class="st2" /><path
         inkscape:connector-curvature="0"
         id="path1338"
         d="m 196.96,48.77 c 0,0.52 -0.36,0.75 -0.71,0.75 -0.38,0 -0.68,-0.28 -0.68,-0.73 0,-0.48 0.31,-0.75 0.7,-0.75 0.41,0 0.69,0.3 0.69,0.73 z m -1.13,0.02 c 0,0.31 0.18,0.55 0.43,0.55 0.25,0 0.43,-0.23 0.43,-0.55 0,-0.24 -0.12,-0.55 -0.43,-0.55 -0.31,0 -0.43,0.28 -0.43,0.55 z"
         class="st2" /><path
         inkscape:connector-curvature="0"
         id="path1340"
         d="m 197.36,48.07 0.2,0.31 c 0.05,0.08 0.1,0.15 0.14,0.23 h 0.01 c 0.05,-0.09 0.09,-0.16 0.14,-0.23 l 0.2,-0.3 h 0.28 l -0.48,0.69 0.5,0.73 h -0.29 l -0.21,-0.32 c -0.06,-0.08 -0.1,-0.16 -0.15,-0.25 h -0.01 c -0.05,0.08 -0.1,0.16 -0.15,0.25 l -0.2,0.32 h -0.29 l 0.51,-0.72 -0.48,-0.7 h 0.28 z"
         class="st2" /><path
         inkscape:connector-curvature="0"
         id="path1342"
         d="m 199.84,48.77 c 0,0.52 -0.36,0.75 -0.71,0.75 -0.38,0 -0.68,-0.28 -0.68,-0.73 0,-0.48 0.31,-0.75 0.7,-0.75 0.42,0 0.69,0.3 0.69,0.73 z m -1.12,0.02 c 0,0.31 0.18,0.55 0.43,0.55 0.25,0 0.43,-0.23 0.43,-0.55 0,-0.24 -0.12,-0.55 -0.42,-0.55 -0.31,0 -0.44,0.28 -0.44,0.55 z"
         class="st2" /><path
         inkscape:connector-curvature="0"
         id="path1344"
         d="m 200.25,48.07 0.2,0.31 c 0.05,0.08 0.1,0.15 0.14,0.23 h 0.01 c 0.05,-0.09 0.09,-0.16 0.14,-0.23 l 0.2,-0.3 h 0.28 l -0.48,0.69 0.5,0.73 h -0.29 l -0.21,-0.32 c -0.06,-0.08 -0.1,-0.16 -0.15,-0.25 h -0.01 c -0.05,0.08 -0.1,0.16 -0.15,0.25 l -0.21,0.32 h -0.28 l 0.5,-0.72 -0.48,-0.7 h 0.29 z"
         class="st2" /><path
         inkscape:connector-curvature="0"
         id="path1346"
         d="m 202.73,48.77 c 0,0.52 -0.36,0.75 -0.71,0.75 -0.38,0 -0.68,-0.28 -0.68,-0.73 0,-0.48 0.31,-0.75 0.7,-0.75 0.41,0 0.69,0.3 0.69,0.73 z m -1.13,0.02 c 0,0.31 0.18,0.55 0.43,0.55 0.25,0 0.43,-0.23 0.43,-0.55 0,-0.24 -0.12,-0.55 -0.43,-0.55 -0.31,0 -0.43,0.28 -0.43,0.55 z"
         class="st2" /><path
         inkscape:connector-curvature="0"
         id="path1348"
         d="m 203.13,48.07 0.2,0.31 c 0.05,0.08 0.1,0.15 0.14,0.23 h 0.01 c 0.05,-0.09 0.09,-0.16 0.14,-0.23 l 0.2,-0.3 h 0.28 l -0.48,0.69 0.5,0.73 h -0.29 l -0.21,-0.32 c -0.06,-0.08 -0.1,-0.16 -0.15,-0.25 h -0.01 c -0.05,0.08 -0.1,0.16 -0.15,0.25 l -0.21,0.32 h -0.28 l 0.5,-0.72 -0.48,-0.7 h 0.29 z"
         class="st2" /><path
         inkscape:connector-curvature="0"
         id="path1350"
         d="m 205.61,48.77 c 0,0.52 -0.36,0.75 -0.71,0.75 -0.38,0 -0.68,-0.28 -0.68,-0.73 0,-0.48 0.31,-0.75 0.7,-0.75 0.42,0 0.69,0.3 0.69,0.73 z m -1.12,0.02 c 0,0.31 0.18,0.55 0.43,0.55 0.25,0 0.43,-0.23 0.43,-0.55 0,-0.24 -0.12,-0.55 -0.43,-0.55 -0.31,0 -0.43,0.28 -0.43,0.55 z"
         class="st2" /><path
         inkscape:connector-curvature="0"
         id="path1352"
         d="m 206.02,48.07 0.2,0.31 c 0.05,0.08 0.1,0.15 0.14,0.23 h 0.01 c 0.05,-0.09 0.09,-0.16 0.14,-0.23 l 0.2,-0.3 h 0.28 l -0.48,0.69 0.5,0.73 h -0.29 l -0.21,-0.32 c -0.06,-0.08 -0.1,-0.16 -0.15,-0.25 h -0.01 c -0.05,0.08 -0.1,0.16 -0.15,0.25 L 206,49.5 h -0.29 l 0.51,-0.72 -0.48,-0.7 h 0.28 z"
         class="st2" /><path
         inkscape:connector-curvature="0"
         id="path1354"
         d="m 208.5,48.77 c 0,0.52 -0.36,0.75 -0.71,0.75 -0.38,0 -0.68,-0.28 -0.68,-0.73 0,-0.48 0.31,-0.75 0.7,-0.75 0.41,0 0.69,0.3 0.69,0.73 z m -1.13,0.02 c 0,0.31 0.18,0.55 0.43,0.55 0.25,0 0.43,-0.23 0.43,-0.55 0,-0.24 -0.12,-0.55 -0.42,-0.55 -0.31,0 -0.44,0.28 -0.44,0.55 z"
         class="st2" /><path
         inkscape:connector-curvature="0"
         id="path1356"
         d="m 208.9,48.07 0.2,0.31 c 0.05,0.08 0.1,0.15 0.14,0.23 h 0.01 c 0.05,-0.09 0.09,-0.16 0.14,-0.23 l 0.2,-0.3 h 0.28 l -0.48,0.69 0.5,0.73 h -0.29 l -0.21,-0.32 c -0.06,-0.08 -0.1,-0.16 -0.15,-0.25 h -0.01 c -0.05,0.08 -0.1,0.16 -0.15,0.25 l -0.21,0.32 h -0.28 l 0.5,-0.72 -0.48,-0.7 h 0.29 z"
         class="st2" /><path
         inkscape:connector-curvature="0"
         id="path1358"
         d="m 211.38,48.77 c 0,0.52 -0.36,0.75 -0.71,0.75 -0.38,0 -0.68,-0.28 -0.68,-0.73 0,-0.48 0.31,-0.75 0.7,-0.75 0.42,0 0.69,0.3 0.69,0.73 z m -1.12,0.02 c 0,0.31 0.18,0.55 0.43,0.55 0.25,0 0.43,-0.23 0.43,-0.55 0,-0.24 -0.12,-0.55 -0.43,-0.55 -0.31,0 -0.43,0.28 -0.43,0.55 z"
         class="st2" /><path
         inkscape:connector-curvature="0"
         id="path1360"
         d="m 211.79,48.07 0.2,0.31 c 0.05,0.08 0.1,0.15 0.14,0.23 h 0.01 c 0.05,-0.09 0.09,-0.16 0.14,-0.23 l 0.2,-0.3 h 0.28 l -0.48,0.69 0.5,0.73 h -0.29 l -0.21,-0.32 c -0.06,-0.08 -0.1,-0.16 -0.15,-0.25 h -0.01 c -0.05,0.08 -0.1,0.16 -0.15,0.25 l -0.2,0.32 h -0.29 l 0.51,-0.72 -0.48,-0.7 h 0.28 z"
         class="st2" /><path
         inkscape:connector-curvature="0"
         id="path1362"
         d="m 214.27,48.77 c 0,0.52 -0.36,0.75 -0.71,0.75 -0.38,0 -0.68,-0.28 -0.68,-0.73 0,-0.48 0.31,-0.75 0.7,-0.75 0.41,0 0.69,0.3 0.69,0.73 z m -1.13,0.02 c 0,0.31 0.18,0.55 0.43,0.55 0.25,0 0.43,-0.23 0.43,-0.55 0,-0.24 -0.12,-0.55 -0.42,-0.55 -0.31,0 -0.44,0.28 -0.44,0.55 z"
         class="st2" /><path
         inkscape:connector-curvature="0"
         id="path1364"
         d="m 214.67,48.07 0.2,0.31 c 0.05,0.08 0.1,0.15 0.14,0.23 h 0.01 c 0.05,-0.09 0.09,-0.16 0.14,-0.23 l 0.2,-0.3 h 0.28 l -0.48,0.69 0.5,0.73 h -0.29 l -0.21,-0.32 c -0.06,-0.08 -0.1,-0.16 -0.15,-0.25 H 215 c -0.05,0.08 -0.1,0.16 -0.15,0.25 l -0.21,0.32 h -0.28 l 0.5,-0.72 -0.48,-0.7 h 0.29 z"
         class="st2" /><path
         inkscape:connector-curvature="0"
         id="path1366"
         d="m 217.15,48.77 c 0,0.52 -0.36,0.75 -0.71,0.75 -0.38,0 -0.68,-0.28 -0.68,-0.73 0,-0.48 0.31,-0.75 0.7,-0.75 0.42,0 0.69,0.3 0.69,0.73 z m -1.12,0.02 c 0,0.31 0.18,0.55 0.43,0.55 0.25,0 0.43,-0.23 0.43,-0.55 0,-0.24 -0.12,-0.55 -0.43,-0.55 -0.31,0 -0.43,0.28 -0.43,0.55 z"
         class="st2" /><path
         inkscape:connector-curvature="0"
         id="path1368"
         d="m 217.56,48.07 0.2,0.31 c 0.05,0.08 0.1,0.15 0.14,0.23 h 0.01 c 0.05,-0.09 0.09,-0.16 0.14,-0.23 l 0.2,-0.3 h 0.28 l -0.48,0.69 0.5,0.73 h -0.29 l -0.21,-0.32 c -0.06,-0.08 -0.1,-0.16 -0.15,-0.25 h -0.01 c -0.05,0.08 -0.1,0.16 -0.15,0.25 l -0.21,0.32 h -0.28 l 0.5,-0.72 -0.48,-0.7 h 0.29 z"
         class="st2" /><path
         inkscape:connector-curvature="0"
         id="path1370"
         d="m 220.04,48.77 c 0,0.52 -0.36,0.75 -0.71,0.75 -0.38,0 -0.68,-0.28 -0.68,-0.73 0,-0.48 0.31,-0.75 0.7,-0.75 0.41,0 0.69,0.3 0.69,0.73 z m -1.13,0.02 c 0,0.31 0.18,0.55 0.43,0.55 0.25,0 0.43,-0.23 0.43,-0.55 0,-0.24 -0.12,-0.55 -0.43,-0.55 -0.3,0 -0.43,0.28 -0.43,0.55 z"
         class="st2" /><path
         inkscape:connector-curvature="0"
         id="path1372"
         d="m 220.44,48.07 0.2,0.31 c 0.05,0.08 0.1,0.15 0.14,0.23 h 0.01 c 0.05,-0.09 0.09,-0.16 0.14,-0.23 l 0.2,-0.3 h 0.28 l -0.48,0.69 0.5,0.73 h -0.29 l -0.21,-0.32 c -0.06,-0.08 -0.1,-0.16 -0.15,-0.25 h -0.01 c -0.05,0.08 -0.1,0.16 -0.15,0.25 l -0.2,0.32 h -0.29 l 0.51,-0.72 -0.48,-0.7 h 0.28 z"
         class="st2" /><path
         inkscape:connector-curvature="0"
         id="path1374"
         d="m 222.92,48.77 c 0,0.52 -0.36,0.75 -0.71,0.75 -0.38,0 -0.68,-0.28 -0.68,-0.73 0,-0.48 0.31,-0.75 0.7,-0.75 0.42,0 0.69,0.3 0.69,0.73 z m -1.12,0.02 c 0,0.31 0.18,0.55 0.43,0.55 0.25,0 0.43,-0.23 0.43,-0.55 0,-0.24 -0.12,-0.55 -0.42,-0.55 -0.31,0 -0.44,0.28 -0.44,0.55 z"
         class="st2" /><path
         inkscape:connector-curvature="0"
         id="path1376"
         d="m 223.33,48.07 0.2,0.31 c 0.05,0.08 0.1,0.15 0.14,0.23 h 0.01 c 0.05,-0.09 0.09,-0.16 0.14,-0.23 l 0.2,-0.3 h 0.28 l -0.48,0.69 0.5,0.73 h -0.29 l -0.21,-0.32 c -0.06,-0.08 -0.1,-0.16 -0.15,-0.25 h -0.01 c -0.05,0.08 -0.1,0.16 -0.15,0.25 l -0.21,0.32 h -0.28 l 0.5,-0.72 -0.48,-0.7 h 0.29 z"
         class="st2" /><path
         inkscape:connector-curvature="0"
         id="path1378"
         d="m 225.81,48.77 c 0,0.52 -0.36,0.75 -0.71,0.75 -0.38,0 -0.68,-0.28 -0.68,-0.73 0,-0.48 0.31,-0.75 0.7,-0.75 0.41,0 0.69,0.3 0.69,0.73 z m -1.13,0.02 c 0,0.31 0.18,0.55 0.43,0.55 0.25,0 0.43,-0.23 0.43,-0.55 0,-0.24 -0.12,-0.55 -0.43,-0.55 -0.3,0 -0.43,0.28 -0.43,0.55 z"
         class="st2" /><path
         inkscape:connector-curvature="0"
         id="path1380"
         d="m 226.21,48.07 0.2,0.31 c 0.05,0.08 0.1,0.15 0.14,0.23 h 0.01 c 0.05,-0.09 0.09,-0.16 0.14,-0.23 l 0.2,-0.3 h 0.28 l -0.48,0.69 0.5,0.73 h -0.29 l -0.21,-0.32 c -0.06,-0.08 -0.1,-0.16 -0.15,-0.25 h -0.01 c -0.05,0.08 -0.1,0.16 -0.15,0.25 l -0.21,0.32 h -0.28 l 0.5,-0.72 -0.48,-0.7 h 0.29 z"
         class="st2" /><path
         inkscape:connector-curvature="0"
         id="path1382"
         d="m 228.69,48.77 c 0,0.52 -0.36,0.75 -0.71,0.75 -0.38,0 -0.68,-0.28 -0.68,-0.73 0,-0.48 0.31,-0.75 0.7,-0.75 0.42,0 0.69,0.3 0.69,0.73 z m -1.12,0.02 c 0,0.31 0.18,0.55 0.43,0.55 0.25,0 0.43,-0.23 0.43,-0.55 0,-0.24 -0.12,-0.55 -0.43,-0.55 -0.3,0 -0.43,0.28 -0.43,0.55 z"
         class="st2" /><path
         inkscape:connector-curvature="0"
         id="path1384"
         d="m 229.1,48.07 0.2,0.31 c 0.05,0.08 0.1,0.15 0.14,0.23 h 0.01 c 0.05,-0.09 0.09,-0.16 0.14,-0.23 l 0.2,-0.3 h 0.28 l -0.48,0.69 0.5,0.73 h -0.29 l -0.21,-0.32 c -0.06,-0.08 -0.1,-0.16 -0.15,-0.25 h -0.01 c -0.05,0.08 -0.1,0.16 -0.15,0.25 l -0.2,0.32 h -0.29 l 0.51,-0.72 -0.48,-0.7 h 0.28 z"
         class="st2" /><path
         inkscape:connector-curvature="0"
         id="path1386"
         d="m 231.58,48.77 c 0,0.52 -0.36,0.75 -0.71,0.75 -0.38,0 -0.68,-0.28 -0.68,-0.73 0,-0.48 0.31,-0.75 0.7,-0.75 0.41,0 0.69,0.3 0.69,0.73 z m -1.13,0.02 c 0,0.31 0.18,0.55 0.43,0.55 0.25,0 0.43,-0.23 0.43,-0.55 0,-0.24 -0.12,-0.55 -0.42,-0.55 -0.31,0 -0.44,0.28 -0.44,0.55 z"
         class="st2" /><path
         inkscape:connector-curvature="0"
         id="path1388"
         d="m 231.98,48.07 0.2,0.31 c 0.05,0.08 0.1,0.15 0.14,0.23 h 0.01 c 0.05,-0.09 0.09,-0.16 0.14,-0.23 l 0.2,-0.3 h 0.28 l -0.48,0.69 0.5,0.73 h -0.29 l -0.21,-0.32 c -0.06,-0.08 -0.1,-0.16 -0.15,-0.25 h -0.01 c -0.05,0.08 -0.1,0.16 -0.15,0.25 l -0.21,0.32 h -0.28 l 0.5,-0.72 -0.48,-0.7 h 0.29 z"
         class="st2" /><path
         inkscape:connector-curvature="0"
         id="path1390"
         d="m 234.46,48.77 c 0,0.52 -0.36,0.75 -0.71,0.75 -0.38,0 -0.68,-0.28 -0.68,-0.73 0,-0.48 0.31,-0.75 0.7,-0.75 0.42,0 0.69,0.3 0.69,0.73 z m -1.12,0.02 c 0,0.31 0.18,0.55 0.43,0.55 0.25,0 0.43,-0.23 0.43,-0.55 0,-0.24 -0.12,-0.55 -0.43,-0.55 -0.3,0 -0.43,0.28 -0.43,0.55 z"
         class="st2" /></g><path
       inkscape:connector-curvature="0"
       id="path1396"
       d="m 91.47,45.72 h 0.96 l -1.23,4.57 h 2.86 l -0.24,0.87 h -3.81 z"
       class="st2" /><path
       inkscape:connector-curvature="0"
       id="path1398"
       d="m 94.63,49.38 c 0,-0.64 0.27,-1.24 0.72,-1.69 0.43,-0.43 1.02,-0.71 1.67,-0.71 1.17,0 1.93,0.79 1.93,1.88 0,0.63 -0.27,1.24 -0.72,1.69 -0.43,0.43 -1.02,0.71 -1.67,0.71 -1.18,-0.01 -1.93,-0.8 -1.93,-1.88 z m 2.89,0.66 c 0.32,-0.31 0.5,-0.77 0.5,-1.17 0,-0.7 -0.43,-1.09 -1.05,-1.09 -0.35,0 -0.67,0.16 -0.91,0.4 -0.32,0.31 -0.5,0.77 -0.5,1.17 0,0.7 0.43,1.09 1.05,1.09 0.35,0 0.67,-0.16 0.91,-0.4 z"
       class="st2" /><path
       inkscape:connector-curvature="0"
       id="path1400"
       d="m 99.87,47.06 h 0.93 l 0.28,3 1.8,-3 h 0.98 l -2.64,4.13 h -0.81 z"
       class="st2" /><path
       inkscape:connector-curvature="0"
       id="path1402"
       d="m 104.61,49.43 c 0,0.61 0.36,1.05 1.05,1.05 0.4,0 0.72,-0.13 1.07,-0.39 l 0.44,0.59 c -0.39,0.33 -0.9,0.57 -1.61,0.57 -1.13,0 -1.85,-0.7 -1.85,-1.79 0,-0.65 0.28,-1.31 0.75,-1.79 0.42,-0.42 0.99,-0.7 1.66,-0.7 1.06,0 1.64,0.7 1.64,1.59 0,0.29 -0.06,0.59 -0.18,0.87 z m 0.1,-0.62 h 2.13 c 0.02,-0.07 0.04,-0.17 0.04,-0.29 0,-0.43 -0.25,-0.78 -0.82,-0.78 -0.37,0 -0.7,0.16 -0.95,0.4 -0.17,0.18 -0.31,0.42 -0.4,0.67 z"
       class="st2" /><path
       inkscape:connector-curvature="0"
       id="path1404"
       d="m 111.57,47.06 h 0.94 l -1.1,4.1 h -0.94 z m 0.37,-1.53 h 1.02 l -0.25,0.89 h -1.01 z"
       class="st2" /><path
       inkscape:connector-curvature="0"
       id="path1406"
       d="m 112.46,50.51 0.57,-0.58 c 0.44,0.44 0.91,0.58 1.33,0.58 0.37,0 0.65,-0.19 0.65,-0.49 0,-0.2 -0.19,-0.34 -0.6,-0.51 -0.68,-0.28 -1.18,-0.54 -1.18,-1.17 0,-0.77 0.62,-1.37 1.61,-1.37 0.64,0 1.24,0.29 1.58,0.58 l -0.52,0.61 c -0.37,-0.29 -0.75,-0.45 -1.13,-0.45 -0.4,0 -0.63,0.2 -0.63,0.47 0,0.21 0.19,0.34 0.65,0.54 0.62,0.26 1.13,0.55 1.13,1.15 0,0.85 -0.7,1.39 -1.64,1.39 -0.63,-0.01 -1.34,-0.25 -1.82,-0.75 z"
       class="st2" /><path
       inkscape:connector-curvature="0"
       id="path1408"
       d="m 119.99,47.06 h 0.94 l -1.1,4.1 h -0.94 z m 0.37,-1.53 h 1.02 l -0.25,0.89 h -1.01 z"
       class="st2" /><path
       inkscape:connector-curvature="0"
       id="path1410"
       d="m 122.15,47.06 h 0.94 l -0.14,0.52 c 0.32,-0.32 0.71,-0.61 1.24,-0.61 0.75,0 1.25,0.47 1.25,1.23 0,0.22 -0.06,0.48 -0.12,0.72 l -0.6,2.24 h -0.94 l 0.61,-2.28 c 0.03,-0.13 0.05,-0.3 0.05,-0.41 0,-0.41 -0.26,-0.64 -0.71,-0.64 -0.53,0 -0.96,0.42 -1.13,1.03 l -0.6,2.3 h -0.94 z"
       class="st2" /><path
       inkscape:connector-curvature="0"
       id="path1412"
       d="m 128.64,50.42 c 0,-0.16 0.02,-0.32 0.07,-0.47 l 0.55,-2.08 h -0.52 l 0.22,-0.81 h 0.52 l 0.3,-1.13 h 0.94 l -0.3,1.13 h 1.1 l -0.22,0.81 h -1.1 l -0.53,1.98 c -0.02,0.08 -0.03,0.17 -0.03,0.23 0,0.21 0.15,0.32 0.41,0.32 0.19,0 0.4,-0.05 0.6,-0.13 l -0.22,0.82 c -0.23,0.1 -0.48,0.15 -0.77,0.15 -0.65,-0.01 -1.02,-0.34 -1.02,-0.82 z"
       class="st2" /><path
       inkscape:connector-curvature="0"
       id="path1414"
       d="m 132.88,45.49 h 0.94 l -0.57,2.09 c 0.32,-0.32 0.71,-0.61 1.24,-0.61 0.75,0 1.25,0.47 1.25,1.23 0,0.22 -0.06,0.48 -0.12,0.72 l -0.6,2.24 h -0.94 l 0.61,-2.28 c 0.03,-0.13 0.05,-0.3 0.05,-0.41 0,-0.41 -0.26,-0.64 -0.71,-0.64 -0.53,0 -0.96,0.42 -1.13,1.03 l -0.62,2.31 h -0.94 z"
       class="st2" /><path
       inkscape:connector-curvature="0"
       id="path1416"
       d="m 137.36,49.43 c 0,0.61 0.36,1.05 1.05,1.05 0.4,0 0.72,-0.13 1.07,-0.39 l 0.44,0.59 c -0.39,0.33 -0.9,0.57 -1.61,0.57 -1.13,0 -1.85,-0.7 -1.85,-1.79 0,-0.65 0.28,-1.31 0.75,-1.79 0.42,-0.42 0.99,-0.7 1.66,-0.7 1.06,0 1.64,0.7 1.64,1.59 0,0.29 -0.06,0.59 -0.18,0.87 z m 0.1,-0.62 h 2.13 c 0.02,-0.07 0.04,-0.17 0.04,-0.29 0,-0.43 -0.25,-0.78 -0.82,-0.78 -0.37,0 -0.7,0.16 -0.95,0.4 -0.18,0.18 -0.32,0.42 -0.4,0.67 z"
       class="st2" /><path
       inkscape:connector-curvature="0"
       id="path1418"
       d="m 144.72,45.72 h 0.96 l -0.61,2.26 h 2.56 l 0.61,-2.26 h 0.96 l -1.46,5.44 h -0.96 l 0.61,-2.29 h -2.56 l -0.61,2.29 h -0.96 z"
       class="st2" /><path
       inkscape:connector-curvature="0"
       id="path1420"
       d="m 149.08,50.12 c 0,-0.41 0.15,-0.74 0.39,-0.99 0.33,-0.32 0.82,-0.5 1.41,-0.5 0.48,0 0.91,0.09 1.27,0.2 l 0.02,-0.07 c 0.02,-0.1 0.05,-0.22 0.05,-0.34 0,-0.38 -0.26,-0.62 -0.91,-0.62 -0.41,0 -0.79,0.09 -1.12,0.23 l -0.16,-0.76 c 0.42,-0.16 0.9,-0.27 1.46,-0.27 1.07,0 1.64,0.47 1.64,1.27 0,0.2 -0.04,0.4 -0.09,0.6 l -0.61,2.29 h -0.91 l 0.14,-0.54 c -0.35,0.39 -0.8,0.63 -1.35,0.63 -0.69,-0.01 -1.23,-0.45 -1.23,-1.13 z m 2.87,-0.53 0.05,-0.19 c -0.26,-0.09 -0.62,-0.16 -0.99,-0.16 -0.34,0 -0.61,0.1 -0.79,0.27 -0.13,0.13 -0.2,0.3 -0.2,0.5 0,0.33 0.26,0.55 0.67,0.55 0.56,0.01 1.11,-0.42 1.26,-0.97 z"
       class="st2" /><path
       inkscape:connector-curvature="0"
       id="path1422"
       d="m 154.71,47.06 h 0.94 l -1.1,4.1 h -0.94 z m 0.37,-1.53 h 1.02 l -0.25,0.89 h -1.01 z"
       class="st2" /><path
       inkscape:connector-curvature="0"
       id="path1424"
       d="m 156.87,47.06 h 0.94 l -0.24,0.92 c 0.45,-0.65 0.99,-1.05 1.72,-1 l -0.26,0.99 h -0.05 c -0.82,0 -1.53,0.53 -1.84,1.66 l -0.41,1.52 h -0.94 z"
       class="st2" /></g></g></svg>
